<?xml version="1.0" encoding="UTF-8" standalone="no"?>
<!-- Created with Inkscape (http://www.inkscape.org/) -->

<svg
   width="750"
   height="750"
   viewBox="0 0 198.43749 198.43751"
   version="1.1"
   id="svg1"
   xml:space="preserve"
   inkscape:version="1.3.2 (091e20e, 2023-11-25, custom)"
   sodipodi:docname="Logo.svg"
   xmlns:inkscape="http://www.inkscape.org/namespaces/inkscape"
   xmlns:sodipodi="http://sodipodi.sourceforge.net/DTD/sodipodi-0.dtd"
   xmlns="http://www.w3.org/2000/svg"
   xmlns:svg="http://www.w3.org/2000/svg"><sodipodi:namedview
     id="namedview1"
     pagecolor="#ffffff"
     bordercolor="#666666"
     borderopacity="1.0"
     inkscape:showpageshadow="2"
     inkscape:pageopacity="0.0"
     inkscape:pagecheckerboard="0"
     inkscape:deskcolor="#d1d1d1"
     inkscape:document-units="mm"
     inkscape:zoom="0.70822811"
     inkscape:cx="341.69782"
     inkscape:cy="468.06953"
     inkscape:window-width="1920"
     inkscape:window-height="991"
     inkscape:window-x="-9"
     inkscape:window-y="-9"
     inkscape:window-maximized="1"
     inkscape:current-layer="layer1" /><defs
     id="defs1" /><g
     inkscape:label="Calque 1"
     inkscape:groupmode="layer"
     id="layer1"><path
       style="fill:#72bc57;stroke-width:2.09188;fill-opacity:1"
       d="m 50.118246,191.22129 c -1.050319,-0.69587 -2.043967,-2.43999 -2.041722,-3.5838 0.0042,-2.48625 1.784387,-4.67543 4.214454,-5.18462 1.020596,-0.21386 13.664867,-0.27025 47.781892,-0.21307 l 46.39404,0.0778 1.23112,0.70561 c 2.7717,1.58859 3.52082,5.06895 1.57607,7.3224 -1.38511,1.60499 2.07261,1.50177 -50.305255,1.50177 H 51.063106 Z m 5.099508,-13.34436 c -0.88876,-0.35038 -2.364627,-2.2283 -2.717805,-3.45823 -0.516791,-1.79963 -0.194057,-4.5825 0.754447,-6.50638 1.637403,-3.32107 4.030715,-5.26212 8.71082,-7.06481 4.725352,-1.8201 6.512302,-3.81779 7.106991,-7.94515 l 0.173931,-1.20709 -1.267637,-0.001 c -3.64309,-0.004 -6.069553,-2.2091 -6.083768,-5.52859 -0.01055,-2.35185 1.343985,-4.34858 3.643234,-5.37239 0.817345,-0.36396 4.271697,-0.41372 33.200018,-0.47831 36.442485,-0.0814 34.175605,-0.19531 36.247135,1.8243 1.36139,1.32741 1.80186,2.52541 1.6552,4.50213 -0.21241,2.86325 -2.76014,5.0543 -5.87702,5.0543 h -1.4392 l 0.16821,1.20709 c 0.33969,2.43872 0.94796,3.66919 2.61633,5.29256 1.27767,1.24317 1.96795,1.68398 3.54177,2.26164 3.62771,1.33151 5.51816,2.40475 7.22602,4.10234 2.45522,2.44043 3.53396,4.81806 3.50589,7.72715 -0.0191,1.93223 -0.50851,3.31817 -1.55814,4.40847 -1.46498,1.52167 1.45597,1.43136 -45.720265,1.41382 -23.836929,-0.009 -43.58567,-0.11289 -43.886076,-0.23142 z m 75.641456,-6.4083 c 0.1055,-0.16651 0.16588,-0.79271 0.13411,-1.39173 -0.13749,-2.58794 0.85593,-3.98862 3.04643,-4.29578 0.67083,-0.0941 1.42495,-0.34633 1.67581,-0.56054 0.61361,-0.52397 0.57583,-1.61857 -0.0842,-2.43654 l -0.5402,-0.66957 h -17.19517 -17.19522 l -0.63977,0.62376 c -0.351855,0.34306 -0.639745,0.80617 -0.639745,1.02913 0,0.79675 0.768315,1.84644 1.478745,2.0203 0.39326,0.0961 5.41167,0.14703 11.15204,0.11277 11.35169,-0.0676 11.40397,-0.062 12.48072,1.35669 0.35314,0.46526 0.5652,1.22226 0.64076,2.28714 0.062,0.87541 0.23065,1.73465 0.37459,1.90935 0.35354,0.42913 5.04021,0.4424 5.31111,0.0149 z m -60.01268,-35.46406 -2.380326,-0.0836 -1.332928,-3.77714 c -1.364115,-3.86551 -2.988681,-7.6798 -6.885331,-16.16594 -6.491969,-14.13826 -9.18092,-22.321571 -10.392035,-31.626361 -0.446816,-3.432747 -0.447897,-13.598685 -0.0018,-16.645306 1.363436,-9.31108 4.498887,-17.489182 9.499503,-24.777377 4.103376,-5.980494 9.601589,-11.33511 15.914802,-15.499148 2.666255,-1.7586 8.830218,-4.774697 11.677273,-5.713817 2.194445,-0.723853 2.263336,-0.771259 2.75958,-1.899265 0.45499,-1.034225 8.407617,-11.6749468 9.553877,-12.7831658 0.57078,-0.551854 1.299725,-0.569862 1.837635,-0.04533 0.35682,0.347904 0.40958,1.551518 0.40958,9.3461488 0,9.853203 0.034,10.076389 1.53824,10.076389 1.50957,0 1.58942,-0.340449 1.58942,-6.776186 V 13.78774 l 0.86907,-1.121735 c 0.47799,-0.616955 1.71288,-2.236732 2.74427,-3.5994698 1.03135,-1.362758 1.98911,-2.477755 2.12831,-2.477755 0.1392,0 0.50097,0.241659 0.80388,0.537002 0.54104,0.527511 0.54857,0.665447 0.42684,7.8164228 -0.0682,4.003703 -0.0716,7.621613 -0.009,8.039799 0.0975,0.637547 0.34303,0.857288 1.52114,1.3606 3.76936,1.610368 8.00028,4.854038 10.75939,8.248812 0.70188,0.863579 2.16515,3.028949 3.25174,4.811944 2.46386,4.042977 3.87119,5.839994 6.69065,8.54323 3.99079,3.826335 9.80551,7.684095 14.40468,9.556779 l 1.75932,0.716378 v 4.171832 4.171804 l -1.8036,2.370605 c -0.99197,1.303825 -1.98897,2.697135 -2.2155,3.096189 -0.22656,0.399093 -1.38491,2.097891 -2.57412,3.775129 -3.19085,4.500316 -4.62025,5.245819 -9.26737,4.833429 -2.2095,-0.195968 -3.82374,-0.773916 -4.71743,-1.688628 -0.32431,-0.331956 -0.97071,-1.4107 -1.43642,-2.397251 -0.96098,-2.0357 -1.91942,-2.929206 -4.63378,-4.31991 -3.75876,-1.925797 -4.94363,-2.181477 -11.14467,-2.404878 -5.92404,-0.213423 -6.87468,-0.384829 -10.1981,-1.838754 C 96.309933,63.503044 91.417482,58.101631 89.016594,51.662919 88.12952,49.28391 87.769151,47.651422 87.45681,44.596919 87.175095,41.841637 86.991776,41.658305 84.518744,41.658305 H 82.749352 L 82.25401,42.61127 c -1.553363,2.988383 -3.144611,9.202041 -3.698901,14.443934 -0.434612,4.110033 -0.188963,11.817978 0.501545,15.733633 1.488782,8.443279 5.352811,18.401082 10.220323,26.338292 1.747311,2.849291 3.000496,4.283961 3.741924,4.283961 0.582557,0 1.643675,-0.98099 1.825627,-1.68777 0.139815,-0.54297 -0.09764,-1.11421 -1.183341,-2.846371 -3.074686,-4.90634 -6.291812,-11.612832 -8.223457,-17.143586 -2.642278,-7.565372 -3.840255,-15.985272 -3.252212,-22.857948 0.243158,-2.841907 1.380737,-9.189265 1.70776,-9.528811 0.03331,-0.03458 0.426579,1.018435 0.874246,2.339777 2.590411,7.645665 7.879112,13.935524 14.924671,17.750023 l 1.705595,0.923419 0.32512,1.59571 c 0.1788,0.87764 0.9616,2.853628 1.73955,4.391101 2.11008,4.17019 4.98572,7.729747 13.54996,16.772373 6.98151,7.371523 10.45945,12.321883 13.03338,18.551253 2.89314,7.00189 3.28296,15.22529 1.02018,21.52073 -0.36748,1.02239 -0.73181,2.05905 -0.8096,2.30366 -0.13346,0.41959 -1.59458,0.44471 -25.87701,0.44471 H 78.643835 l -1.202974,-2.66287 c -3.460943,-7.66092 -6.399393,-18.16745 -7.739357,-27.67232 -0.347097,-2.4621 -0.805036,-3.20953 -1.966345,-3.20953 -0.958143,0 -1.592638,0.39992 -1.7782,1.12081 -0.191513,0.7438 0.642822,7.30942 1.407587,11.07727 1.046632,5.15658 4.154246,15.57941 5.706954,19.14103 0.704618,1.61622 0.876534,2.46942 0.485005,2.40699 -0.18197,-0.0289 -1.401903,-0.0902 -2.711106,-0.136 z"
       id="path1"
       sodipodi:nodetypes="scsccssscsssssscscssssscsssscscsscccsscccssscsssccccssssssssssssscssssccssssscccsssssssssssscsscssscssscscssssssscssssssccc" /></g></svg>
